<?xml version="1.0" encoding="UTF-8"?>
<svg id="Layer_1" data-name="Layer 1" xmlns="http://www.w3.org/2000/svg" xmlns:xlink="http://www.w3.org/1999/xlink" viewBox="0 0 357.4 91.33">
  <defs>
    <style>
      .cls-1, .cls-2, .cls-3, .cls-4, .cls-5 {
        font-family: TimesNewRomanPS-ItalicMT, 'Times New Roman';
        font-style: italic;
      }

      .cls-1, .cls-6 {
        fill: #010101;
        font-size: 11.62px;
      }

      .cls-7 {
        stroke: #ea292b;
        stroke-width: .59px;
      }

      .cls-7, .cls-8, .cls-9, .cls-10, .cls-11 {
        stroke-miterlimit: 10;
      }

      .cls-7, .cls-12, .cls-13, .cls-9, .cls-14, .cls-15, .cls-10 {
        fill: none;
      }

      .cls-7, .cls-9 {
        stroke-linecap: square;
      }

      .cls-16, .cls-4 {
        fill: #1971b9;
      }

      .cls-17 {
        font-family: SymbolMT, Symbol;
      }

      .cls-17, .cls-2, .cls-3, .cls-18, .cls-19 {
        fill: #ea292b;
      }

      .cls-17, .cls-3, .cls-18 {
        font-size: 11.97px;
      }

      .cls-20 {
        clip-path: url(#clippath-4);
      }

      .cls-8, .cls-21 {
        fill: #fff;
      }

      .cls-8, .cls-10 {
        stroke-width: .75px;
      }

      .cls-8, .cls-10, .cls-11 {
        stroke: #231f20;
      }

      .cls-22, .cls-5 {
        fill: #231f20;
      }

      .cls-2 {
        font-size: 11.65px;
      }

      .cls-12 {
        stroke: #00a651;
      }

      .cls-12, .cls-14, .cls-15 {
        stroke-linejoin: round;
      }

      .cls-12, .cls-15 {
        stroke-width: 2.5px;
      }

      .cls-23 {
        fill: #ec262a;
      }

      .cls-24 {
        letter-spacing: 0em;
      }

      .cls-9 {
        stroke: #010101;
        stroke-width: .57px;
      }

      .cls-25 {
        clip-path: url(#clippath-1);
      }

      .cls-6, .cls-18, .cls-19 {
        font-family: TimesNewRomanPSMT, 'Times New Roman';
      }

      .cls-26 {
        clip-path: url(#clippath-5);
      }

      .cls-27 {
        fill: #00a651;
      }

      .cls-28 {
        clip-path: url(#clippath-3);
      }

      .cls-29 {
        fill: #009444;
        font-family: ArialMT, Arial;
        font-size: 11px;
      }

      .cls-14 {
        stroke: #1971b9;
      }

      .cls-15 {
        stroke: #ec262a;
      }

      .cls-4 {
        font-size: 12px;
      }

      .cls-30 {
        letter-spacing: 0em;
      }

      .cls-31 {
        clip-path: url(#clippath-2);
      }

      .cls-5 {
        font-size: 10px;
      }

      .cls-19 {
        font-size: 6.92px;
      }

      .cls-32 {
        clip-path: url(#clippath);
      }

      .cls-11 {
        fill: #c0bfbf;
        stroke-width: 1.5px;
      }
    </style>
    <clipPath id="clippath">
      <polygon class="cls-13" points="16.95 70.65 35.32 70.65 35.32 57.07 16.95 57.07 16.95 70.65 16.95 70.65"/>
    </clipPath>
    <clipPath id="clippath-1">
      <polygon class="cls-13" points="42.41 73.53 63.68 73.53 63.68 57.07 42.41 57.07 42.41 73.53 42.41 73.53"/>
    </clipPath>
    <clipPath id="clippath-2">
      <polygon class="cls-13" points="138.08 73.53 159.35 73.53 159.35 57.07 138.08 57.07 138.08 73.53 138.08 73.53"/>
    </clipPath>
    <clipPath id="clippath-3">
      <polygon class="cls-13" points="233.75 73.53 255.02 73.53 255.02 57.07 233.75 57.07 233.75 73.53 233.75 73.53"/>
    </clipPath>
    <clipPath id="clippath-4">
      <polygon class="cls-13" points="329.41 73.53 350.69 73.53 350.69 57.07 329.41 57.07 329.41 73.53 329.41 73.53"/>
    </clipPath>
    <clipPath id="clippath-5">
      <polygon class="cls-13" points="-.89 29.76 31.78 29.76 31.78 -3.17 -.89 -3.17 -.89 29.76 -.89 29.76"/>
    </clipPath>
  </defs>
  <rect class="cls-11" x="38.86" y="25.18" width="28.35" height="14.17"/>
  <g>
    <path class="cls-15" d="M31.78,46.44c-7-7-8.1-17.66-3.3-25.81"/>
    <polygon class="cls-23" points="30.92 23.8 31.78 16.37 24.91 19.34 30.92 23.8"/>
  </g>
  <g>
    <line class="cls-21" x1="38.86" y1="32.26" x2="56.58" y2="32.26"/>
    <g>
      <line class="cls-10" x1="38.86" y1="32.26" x2="53.26" y2="32.26"/>
      <polygon class="cls-22" points="52.51 33.35 56.58 32.26 52.51 31.17 52.51 33.35"/>
    </g>
  </g>
  <g>
    <line class="cls-10" x1="38.86" y1="32.26" x2="38.86" y2="78.55"/>
    <polygon class="cls-22" points="37.77 77.81 38.86 81.87 39.95 77.81 37.77 77.81"/>
  </g>
  <text class="cls-5" transform="translate(35.32 88.96)"><tspan x="0" y="0">y</tspan></text>
  <text class="cls-5" transform="translate(60.12 35.81)"><tspan x="0" y="0">z</tspan></text>
  <g>
    <line class="cls-15" x1="38.86" y1="44.73" x2="38.86" y2="67.7"/>
    <polygon class="cls-23" points="35.12 45.83 38.86 39.35 42.6 45.83 35.12 45.83"/>
  </g>
  <g>
    <line class="cls-12" x1="74.3" y1="18.09" x2="74.3" y2="44.6"/>
    <polygon class="cls-27" points="70.56 43.5 74.3 49.98 78.04 43.5 70.56 43.5"/>
  </g>
  <g>
    <path class="cls-12" d="M85.54,20.63c4.8,8.15,3.7,18.8-3.3,25.81"/>
    <polygon class="cls-27" points="83.1 23.8 82.24 16.37 89.1 19.34 83.1 23.8"/>
  </g>
  <text class="cls-29" transform="translate(70.75 60.61)"><tspan x="0" y="0">V</tspan></text>
  <text class="cls-29" transform="translate(78.09 64.27) scale(.58)"><tspan x="0" y="0">1</tspan></text>
  <text class="cls-29" transform="translate(77.84 11)"><tspan x="0" y="0">M</tspan></text>
  <text class="cls-29" transform="translate(87 14.67) scale(.58)"><tspan x="0" y="0">1</tspan></text>
  <g class="cls-32">
    <text class="cls-2" transform="translate(18.88 67.74)"><tspan class="cls-30" x="0" y="0">w</tspan><tspan x="7.81" y="0">L</tspan></text>
  </g>
  <rect class="cls-11" x="134.54" y="25.18" width="28.34" height="14.17"/>
  <g>
    <line class="cls-12" x1="169.97" y1="18.09" x2="169.97" y2="44.6"/>
    <polygon class="cls-27" points="166.23 43.5 169.97 49.98 173.7 43.5 166.23 43.5"/>
  </g>
  <g>
    <path class="cls-12" d="M181.21,20.63c4.8,8.15,3.7,18.8-3.3,25.81"/>
    <polygon class="cls-27" points="178.77 23.8 177.91 16.37 184.77 19.34 178.77 23.8"/>
  </g>
  <text class="cls-29" transform="translate(166.42 60.61)"><tspan x="0" y="0">V</tspan></text>
  <text class="cls-29" transform="translate(173.76 64.27) scale(.58)"><tspan x="0" y="0">2</tspan></text>
  <text class="cls-29" transform="translate(173.51 11)"><tspan x="0" y="0">M</tspan></text>
  <text class="cls-29" transform="translate(182.67 14.67) scale(.58)"><tspan x="0" y="0">2</tspan></text>
  <g>
    <line class="cls-12" x1="127.45" y1="20.62" x2="127.45" y2="47.13"/>
    <polygon class="cls-27" points="123.71 21.72 127.45 15.24 131.19 21.72 123.71 21.72"/>
  </g>
  <text class="cls-29" transform="translate(120.36 11)"><tspan x="0" y="0">V</tspan></text>
  <text class="cls-29" transform="translate(127.7 14.67) scale(.58)"><tspan x="0" y="0">1</tspan></text>
  <g>
    <path class="cls-12" d="M116.21,20.63c-4.8,8.15-3.7,18.8,3.3,25.81"/>
    <polygon class="cls-27" points="112.64 19.34 119.51 16.37 118.65 23.8 112.64 19.34"/>
  </g>
  <text class="cls-29" transform="translate(102.65 11)"><tspan x="0" y="0">M</tspan></text>
  <text class="cls-29" transform="translate(111.81 14.67) scale(.58)"><tspan x="0" y="0">1</tspan></text>
  <line class="cls-10" x1="67.21" y1="60.61" x2="67.21" y2="42.89"/>
  <g>
    <line class="cls-10" x1="42.18" y1="57.07" x2="63.89" y2="57.07"/>
    <polygon class="cls-22" points="42.93 58.16 38.86 57.07 42.93 55.98 42.93 58.16"/>
    <polygon class="cls-22" points="63.14 58.16 67.21 57.07 63.14 55.98 63.14 58.16"/>
  </g>
  <line class="cls-8" x1="134.54" y1="60.61" x2="134.54" y2="42.89"/>
  <line class="cls-10" x1="162.88" y1="60.61" x2="162.88" y2="42.89"/>
  <g>
    <line class="cls-10" x1="137.86" y1="57.07" x2="159.56" y2="57.07"/>
    <polygon class="cls-22" points="138.6 58.16 134.54 57.07 138.6 55.98 138.6 58.16"/>
    <polygon class="cls-22" points="158.81 58.16 162.88 57.07 158.81 55.98 158.81 58.16"/>
  </g>
  <g class="cls-25">
    <line class="cls-9" x1="54.7" y1="59.79" x2="50.99" y2="71.41"/>
    <text class="cls-6" transform="translate(55.73 68.69)"><tspan x="0" y="0">4</tspan></text>
    <text class="cls-1" transform="translate(44.52 68.69)"><tspan x="0" y="0">L</tspan></text>
  </g>
  <g class="cls-31">
    <line class="cls-9" x1="150.37" y1="59.79" x2="146.66" y2="71.41"/>
    <text class="cls-6" transform="translate(151.4 68.69)"><tspan x="0" y="0">4</tspan></text>
    <text class="cls-1" transform="translate(140.19 68.69)"><tspan x="0" y="0">L</tspan></text>
  </g>
  <rect class="cls-11" x="230.2" y="25.18" width="28.35" height="14.17"/>
  <g>
    <line class="cls-12" x1="265.63" y1="18.09" x2="265.63" y2="44.6"/>
    <polygon class="cls-27" points="261.9 43.5 265.63 49.98 269.37 43.5 261.9 43.5"/>
  </g>
  <g>
    <path class="cls-12" d="M276.88,20.63c4.8,8.15,3.7,18.8-3.3,25.81"/>
    <polygon class="cls-27" points="274.44 23.8 273.58 16.37 280.44 19.34 274.44 23.8"/>
  </g>
  <text class="cls-29" transform="translate(262.71 60.61)"><tspan x="0" y="0">V</tspan></text>
  <text class="cls-29" transform="translate(270.05 64.27) scale(.58)"><tspan x="0" y="0">3</tspan></text>
  <text class="cls-29" transform="translate(269.18 11)"><tspan x="0" y="0">M</tspan></text>
  <text class="cls-29" transform="translate(278.34 14.67) scale(.58)"><tspan x="0" y="0">3</tspan></text>
  <g>
    <line class="cls-12" x1="223.12" y1="20.62" x2="223.11" y2="47.13"/>
    <polygon class="cls-27" points="219.38 21.72 223.11 15.24 226.85 21.72 219.38 21.72"/>
  </g>
  <text class="cls-29" transform="translate(216.65 11)"><tspan x="0" y="0">V</tspan></text>
  <text class="cls-29" transform="translate(223.98 14.67) scale(.58)"><tspan x="0" y="0">2</tspan></text>
  <g>
    <path class="cls-12" d="M211.87,20.63c-4.8,8.15-3.7,18.8,3.3,25.81"/>
    <polygon class="cls-27" points="208.31 19.34 215.17 16.37 214.31 23.8 208.31 19.34"/>
  </g>
  <text class="cls-29" transform="translate(198.93 11)"><tspan x="0" y="0">M</tspan></text>
  <text class="cls-29" transform="translate(208.09 14.67) scale(.58)"><tspan x="0" y="0">2</tspan></text>
  <rect class="cls-11" x="325.87" y="25.18" width="28.35" height="14.17"/>
  <g>
    <line class="cls-12" x1="318.79" y1="20.62" x2="318.78" y2="47.13"/>
    <polygon class="cls-27" points="315.05 21.72 318.79 15.24 322.52 21.72 315.05 21.72"/>
  </g>
  <text class="cls-29" transform="translate(311.7 11)"><tspan x="0" y="0">V</tspan></text>
  <text class="cls-29" transform="translate(319.04 14.67) scale(.58)"><tspan x="0" y="0">3</tspan></text>
  <g>
    <path class="cls-12" d="M307.54,20.63c-4.8,8.15-3.7,18.8,3.3,25.81"/>
    <polygon class="cls-27" points="303.98 19.34 310.84 16.37 309.98 23.8 303.98 19.34"/>
  </g>
  <text class="cls-29" transform="translate(293.98 11)"><tspan x="0" y="0">M</tspan></text>
  <text class="cls-29" transform="translate(303.14 14.67) scale(.58)"><tspan x="0" y="0">3</tspan></text>
  <line class="cls-8" x1="230.2" y1="60.61" x2="230.2" y2="42.89"/>
  <line class="cls-10" x1="258.55" y1="60.61" x2="258.55" y2="42.89"/>
  <g>
    <line class="cls-10" x1="233.52" y1="57.07" x2="255.23" y2="57.07"/>
    <polygon class="cls-22" points="234.27 58.16 230.2 57.07 234.27 55.98 234.27 58.16"/>
    <polygon class="cls-22" points="254.48 58.16 258.55 57.07 254.48 55.98 254.48 58.16"/>
  </g>
  <g class="cls-28">
    <line class="cls-9" x1="246.04" y1="59.79" x2="242.33" y2="71.41"/>
    <text class="cls-6" transform="translate(247.07 68.69)"><tspan x="0" y="0">4</tspan></text>
    <text class="cls-1" transform="translate(235.86 68.69)"><tspan x="0" y="0">L</tspan></text>
  </g>
  <line class="cls-8" x1="325.87" y1="60.61" x2="325.87" y2="42.89"/>
  <line class="cls-10" x1="354.22" y1="60.61" x2="354.22" y2="42.89"/>
  <g>
    <line class="cls-10" x1="329.19" y1="57.07" x2="350.9" y2="57.07"/>
    <polygon class="cls-22" points="329.93 58.16 325.87 57.07 329.93 55.98 329.93 58.16"/>
    <polygon class="cls-22" points="350.15 58.16 354.22 57.07 350.15 55.98 350.15 58.16"/>
  </g>
  <g class="cls-20">
    <line class="cls-9" x1="341.71" y1="59.79" x2="338" y2="71.41"/>
    <text class="cls-6" transform="translate(342.74 68.69)"><tspan x="0" y="0">4</tspan></text>
    <text class="cls-1" transform="translate(331.53 68.69)"><tspan x="0" y="0">L</tspan></text>
  </g>
  <g>
    <g>
      <line class="cls-14" x1="53.04" y1="20.75" x2="53.04" y2="11"/>
      <polygon class="cls-16" points="54.49 19.76 53.04 25.18 51.58 19.76 54.49 19.76"/>
    </g>
    <g>
      <polyline class="cls-14" points="38.86 20.75 38.86 11 67.21 11 67.21 20.75"/>
      <polygon class="cls-16" points="40.31 19.76 38.86 25.18 37.41 19.76 40.31 19.76"/>
      <polygon class="cls-16" points="65.76 19.76 67.21 25.18 68.66 19.76 65.76 19.76"/>
    </g>
  </g>
  <text class="cls-4" transform="translate(49.49 7.46)"><tspan x="0" y="0">w</tspan></text>
  <g>
    <g>
      <line class="cls-14" x1="148.71" y1="20.75" x2="148.71" y2="11"/>
      <polygon class="cls-16" points="150.16 19.76 148.71 25.18 147.25 19.76 150.16 19.76"/>
    </g>
    <g>
      <polyline class="cls-14" points="134.53 20.75 134.53 11 162.88 11 162.88 20.75"/>
      <polygon class="cls-16" points="135.99 19.76 134.53 25.18 133.08 19.76 135.99 19.76"/>
      <polygon class="cls-16" points="161.43 19.76 162.88 25.18 164.33 19.76 161.43 19.76"/>
    </g>
  </g>
  <text class="cls-4" transform="translate(145.16 7.46)"><tspan x="0" y="0">w</tspan></text>
  <g>
    <g>
      <line class="cls-14" x1="244.38" y1="20.75" x2="244.38" y2="11"/>
      <polygon class="cls-16" points="245.83 19.76 244.38 25.18 242.92 19.76 245.83 19.76"/>
    </g>
    <g>
      <polyline class="cls-14" points="230.2 20.75 230.2 11 258.55 11 258.55 20.75"/>
      <polygon class="cls-16" points="231.65 19.76 230.2 25.18 228.75 19.76 231.65 19.76"/>
      <polygon class="cls-16" points="257.1 19.76 258.55 25.18 260 19.76 257.1 19.76"/>
    </g>
  </g>
  <text class="cls-4" transform="translate(240.83 7.46)"><tspan x="0" y="0">w</tspan></text>
  <g>
    <g>
      <line class="cls-14" x1="340.04" y1="20.75" x2="340.04" y2="11"/>
      <polygon class="cls-16" points="341.5 19.76 340.04 25.18 338.59 19.76 341.5 19.76"/>
    </g>
    <g>
      <polyline class="cls-14" points="325.87 20.75 325.87 11 354.22 11 354.22 20.75"/>
      <polygon class="cls-16" points="327.32 19.76 325.87 25.18 324.42 19.76 327.32 19.76"/>
      <polygon class="cls-16" points="352.77 19.76 354.22 25.18 355.67 19.76 352.77 19.76"/>
    </g>
  </g>
  <text class="cls-4" transform="translate(336.5 7.46)"><tspan x="0" y="0">w</tspan></text>
  <g class="cls-26">
    <line class="cls-7" x1="9.26" y1="14.79" x2="28.96" y2="14.79"/>
    <text class="cls-19" transform="translate(23.83 4.88)"><tspan x="0" y="0">2</tspan></text>
    <text class="cls-18" transform="translate(16.31 27.14)"><tspan x="0" y="0">2</tspan></text>
    <text class="cls-3" transform="translate(10.18 10.24)"><tspan class="cls-24" x="0" y="0">w</tspan><tspan x="8.03" y="0">L</tspan></text>
    <text class="cls-17" transform="translate(.91 17.79)"><tspan x="0" y="0">−</tspan></text>
  </g>
</svg>